<?xml version="1.0" encoding="UTF-8" ?>
<svg width="512pt" height="512pt" viewBox="0 0 512 512" version="1.1" xmlns="http://www.w3.org/2000/svg">
    <g id="#fcfdfdff">
        <path fill="#fcfdfd" opacity="1.00"
              d=" M 234.49 67.76 C 270.86 63.50 308.42 70.21 341.08 86.77 C 387.47 110.04 423.51 153.06 437.88 202.97 C 452.22 251.28 446.03 305.25 420.97 349.00 C 402.12 382.40 372.91 409.84 338.39 426.56 C 293.22 448.70 239.11 451.53 191.87 434.26 C 166.65 425.14 143.35 410.63 124.20 391.84 C 97.88 366.55 79.23 333.41 71.20 297.81 C 63.22 262.83 65.49 225.57 77.75 191.85 C 87.50 164.86 103.47 140.11 124.15 120.21 C 153.75 91.13 193.25 72.36 234.49 67.76 M 270.33 105.41 C 245.21 121.88 220.12 138.41 195.02 154.90 C 193.26 155.99 191.53 157.71 191.97 159.99 C 191.74 162.52 194.15 163.93 195.91 165.21 C 220.03 181.74 244.22 198.16 268.43 214.56 C 270.25 215.77 271.95 217.22 274.01 218.00 C 276.72 218.41 279.35 215.78 278.43 213.05 C 276.47 205.33 273.60 197.86 271.73 190.12 C 272.13 188.15 273.86 186.00 276.05 186.32 C 307.84 190.68 336.68 210.51 353.22 237.84 C 361.54 251.21 366.67 266.38 369.00 281.91 C 369.96 286.04 376.72 285.87 377.39 281.63 C 381.23 266.10 381.75 249.76 378.96 234.00 C 374.22 206.51 359.28 180.95 337.69 163.29 C 320.02 148.66 297.78 139.70 274.91 137.99 C 271.98 138.11 269.12 135.03 270.35 132.14 C 272.44 124.69 274.71 117.28 276.78 109.83 C 278.07 106.27 273.22 102.81 270.33 105.41 M 137.41 221.02 C 131.16 245.82 133.58 272.64 143.93 296.02 C 155.02 321.38 175.32 342.68 200.38 354.54 C 212.81 360.50 226.37 363.94 240.10 365.05 C 242.80 365.00 245.36 367.82 244.45 370.49 C 242.34 378.38 239.74 386.14 237.76 394.06 C 237.42 397.50 241.99 399.92 244.57 397.47 C 269.90 380.82 295.28 364.22 320.55 347.49 C 323.79 345.61 323.41 340.50 320.21 338.79 C 295.14 321.48 269.86 304.47 244.68 287.31 C 243.46 286.48 242.25 285.61 240.90 285.04 C 238.11 284.44 235.22 287.29 236.28 290.09 C 238.44 297.73 240.92 305.27 243.14 312.90 C 242.39 314.65 241.24 316.77 239.00 316.68 C 204.20 312.14 173.01 288.85 157.31 257.66 C 151.36 246.27 147.62 233.82 145.76 221.13 C 144.86 217.18 138.30 216.97 137.41 221.02 Z"/>
    </g>
    <g id="#0970acff">
        <path fill="#0970ac" opacity="1.00"
              d=" M 196.37 55.51 C 226.23 46.56 258.11 44.67 288.88 49.45 C 328.14 55.58 365.44 73.37 395.05 99.86 C 439.56 139.14 466.23 198.13 465.05 257.60 C 464.88 295.39 454.13 333.09 434.26 365.25 C 415.07 396.59 387.47 422.71 355.12 440.15 C 321.05 458.68 281.71 467.17 243.03 464.72 C 211.99 462.89 181.40 453.92 154.27 438.72 C 126.46 423.19 102.26 401.23 84.13 375.04 C 60.26 340.84 47.11 299.31 46.95 257.60 C 46.01 207.66 64.56 157.87 97.10 120.08 C 123.11 89.66 157.96 66.86 196.37 55.51 M 234.49 67.76 C 193.25 72.36 153.75 91.13 124.15 120.21 C 103.47 140.11 87.50 164.86 77.75 191.85 C 65.49 225.57 63.22 262.83 71.20 297.81 C 79.23 333.41 97.88 366.55 124.20 391.84 C 143.35 410.63 166.65 425.14 191.87 434.26 C 239.11 451.53 293.22 448.70 338.39 426.56 C 372.91 409.84 402.12 382.40 420.97 349.00 C 446.03 305.25 452.22 251.28 437.88 202.97 C 423.51 153.06 387.47 110.04 341.08 86.77 C 308.42 70.21 270.86 63.50 234.49 67.76 Z"/>
        <path fill="#0970ac" opacity="1.00"
              d=" M 270.33 105.41 C 273.22 102.81 278.07 106.27 276.78 109.83 C 274.71 117.28 272.44 124.69 270.35 132.14 C 269.12 135.03 271.98 138.11 274.91 137.99 C 297.78 139.70 320.02 148.66 337.69 163.29 C 359.28 180.95 374.22 206.51 378.96 234.00 C 381.75 249.76 381.23 266.10 377.39 281.63 C 376.72 285.87 369.96 286.04 369.00 281.91 C 366.67 266.38 361.54 251.21 353.22 237.84 C 336.68 210.51 307.84 190.68 276.05 186.32 C 273.86 186.00 272.13 188.15 271.73 190.12 C 273.60 197.86 276.47 205.33 278.43 213.05 C 279.35 215.78 276.72 218.41 274.01 218.00 C 271.95 217.22 270.25 215.77 268.43 214.56 C 244.22 198.16 220.03 181.74 195.91 165.21 C 194.15 163.93 191.74 162.52 191.97 159.99 C 191.53 157.71 193.26 155.99 195.02 154.90 C 220.12 138.41 245.21 121.88 270.33 105.41 Z"/>
    </g>
    <g id="#df3d22ff">
        <path fill="#df3d22" opacity="1.00"
              d=" M 137.41 221.02 C 138.30 216.97 144.86 217.18 145.76 221.13 C 147.62 233.82 151.36 246.27 157.31 257.66 C 173.01 288.85 204.20 312.14 239.00 316.68 C 241.24 316.77 242.39 314.65 243.14 312.90 C 240.92 305.27 238.44 297.73 236.28 290.09 C 235.22 287.29 238.11 284.44 240.90 285.04 C 242.25 285.61 243.46 286.48 244.68 287.31 C 269.86 304.47 295.14 321.48 320.21 338.79 C 323.41 340.50 323.79 345.61 320.55 347.49 C 295.28 364.22 269.90 380.82 244.57 397.47 C 241.99 399.92 237.42 397.50 237.76 394.06 C 239.74 386.14 242.34 378.38 244.45 370.49 C 245.36 367.82 242.80 365.00 240.10 365.05 C 226.37 363.94 212.81 360.50 200.38 354.54 C 175.32 342.68 155.02 321.38 143.93 296.02 C 133.58 272.64 131.16 245.82 137.41 221.02 Z"/>
    </g>
    <g id="#c6d5dbff">
    </g>
</svg>
